<svg id="visual" viewBox="0 0 540 960" width="540" height="960" xmlns="http://www.w3.org/2000/svg" xmlns:xlink="http://www.w3.org/1999/xlink" version="1.1"><path d="M0 135L18 141.5C36 148 72 161 108 169C144 177 180 180 216 175.2C252 170.3 288 157.7 324 156.2C360 154.7 396 164.3 432 174C468 183.7 504 193.3 522 198.2L540 203L540 0L522 0C504 0 468 0 432 0C396 0 360 0 324 0C288 0 252 0 216 0C180 0 144 0 108 0C72 0 36 0 18 0L0 0Z" fill="#060c21"></path><path d="M0 212L18 221.7C36 231.3 72 250.7 108 271.5C144 292.3 180 314.7 216 317.8C252 321 288 305 324 295.3C360 285.7 396 282.3 432 279.2C468 276 504 273 522 271.5L540 270L540 201L522 196.2C504 191.3 468 181.7 432 172C396 162.3 360 152.7 324 154.2C288 155.7 252 168.3 216 173.2C180 178 144 175 108 167C72 159 36 146 18 139.5L0 133Z" fill="#081638"></path><path d="M0 443L18 457.3C36 471.7 72 500.3 108 519.5C144 538.7 180 548.3 216 559.5C252 570.7 288 583.3 324 591.3C360 599.3 396 602.7 432 601.2C468 599.7 504 593.3 522 590.2L540 587L540 268L522 269.5C504 271 468 274 432 277.2C396 280.3 360 283.7 324 293.3C288 303 252 319 216 315.8C180 312.7 144 290.3 108 269.5C72 248.7 36 229.3 18 219.7L0 210Z" fill="#0f2962"></path><path d="M0 769L18 773.8C36 778.7 72 788.3 108 798C144 807.7 180 817.3 216 828.5C252 839.7 288 852.3 324 847.5C360 842.7 396 820.3 432 817.2C468 814 504 830 522 838L540 846L540 585L522 588.2C504 591.3 468 597.7 432 599.2C396 600.7 360 597.3 324 589.3C288 581.3 252 568.7 216 557.5C180 546.3 144 536.7 108 517.5C72 498.3 36 469.7 18 455.3L0 441Z" fill="#081638"></path><path d="M0 961L18 961C36 961 72 961 108 961C144 961 180 961 216 961C252 961 288 961 324 961C360 961 396 961 432 961C468 961 504 961 522 961L540 961L540 844L522 836C504 828 468 812 432 815.2C396 818.3 360 840.7 324 845.5C288 850.3 252 837.7 216 826.5C180 815.3 144 805.7 108 796C72 786.3 36 776.7 18 771.8L0 767Z" fill="#060c21"></path></svg>