<svg id="visual" viewBox="0 0 1920 1080" width="1920" height="1080" xmlns="http://www.w3.org/2000/svg" xmlns:xlink="http://www.w3.org/1999/xlink" version="1.1"><path d="M0 174L29.2 186.5C58.3 199 116.7 224 174.8 238.3C233 252.7 291 256.3 349.2 243.8C407.3 231.3 465.7 202.7 523.8 173.8C582 145 640 116 698.2 103.3C756.3 90.7 814.7 94.3 872.8 117.8C931 141.3 989 184.7 1047.2 202.7C1105.3 220.7 1163.7 213.3 1221.8 209.7C1280 206 1338 206 1396.2 193.5C1454.3 181 1512.7 156 1570.8 163.2C1629 170.3 1687 209.7 1745.2 206C1803.3 202.3 1861.7 155.7 1890.8 132.3L1920 109L1920 0L1890.8 0C1861.7 0 1803.3 0 1745.2 0C1687 0 1629 0 1570.8 0C1512.7 0 1454.3 0 1396.2 0C1338 0 1280 0 1221.8 0C1163.7 0 1105.3 0 1047.2 0C989 0 931 0 872.8 0C814.7 0 756.3 0 698.2 0C640 0 582 0 523.8 0C465.7 0 407.3 0 349.2 0C291 0 233 0 174.8 0C116.7 0 58.3 0 29.2 0L0 0Z" fill="#060c21"></path><path d="M0 487L29.2 515.8C58.3 544.7 116.7 602.3 174.8 625.7C233 649 291 638 349.2 607.3C407.3 576.7 465.7 526.3 523.8 488.7C582 451 640 426 698.2 411.7C756.3 397.3 814.7 393.7 872.8 411.7C931 429.7 989 469.3 1047.2 510.7C1105.3 552 1163.7 595 1221.8 622C1280 649 1338 660 1396.2 613.2C1454.3 566.3 1512.7 461.7 1570.8 441.8C1629 422 1687 487 1745.2 490.7C1803.3 494.3 1861.7 436.7 1890.8 407.8L1920 379L1920 107L1890.8 130.3C1861.7 153.7 1803.3 200.3 1745.2 204C1687 207.7 1629 168.3 1570.8 161.2C1512.7 154 1454.3 179 1396.2 191.5C1338 204 1280 204 1221.8 207.7C1163.7 211.3 1105.3 218.7 1047.2 200.7C989 182.7 931 139.3 872.8 115.8C814.7 92.3 756.3 88.7 698.2 101.3C640 114 582 143 523.8 171.8C465.7 200.7 407.3 229.3 349.2 241.8C291 254.3 233 250.7 174.8 236.3C116.7 222 58.3 197 29.2 184.5L0 172Z" fill="#070e26"></path><path d="M0 768L29.2 775.2C58.3 782.3 116.7 796.7 174.8 816.5C233 836.3 291 861.7 349.2 858C407.3 854.3 465.7 821.7 523.8 798.2C582 774.7 640 760.3 698.2 749.7C756.3 739 814.7 732 872.8 744.7C931 757.3 989 789.7 1047.2 804C1105.3 818.3 1163.7 814.7 1221.8 814.7C1280 814.7 1338 818.3 1396.2 807.5C1454.3 796.7 1512.7 771.3 1570.8 755.2C1629 739 1687 732 1745.2 746.5C1803.3 761 1861.7 797 1890.8 815L1920 833L1920 377L1890.8 405.8C1861.7 434.7 1803.3 492.3 1745.2 488.7C1687 485 1629 420 1570.8 439.8C1512.7 459.7 1454.3 564.3 1396.2 611.2C1338 658 1280 647 1221.8 620C1163.7 593 1105.3 550 1047.2 508.7C989 467.3 931 427.7 872.8 409.7C814.7 391.7 756.3 395.3 698.2 409.7C640 424 582 449 523.8 486.7C465.7 524.3 407.3 574.7 349.2 605.3C291 636 233 647 174.8 623.7C116.7 600.3 58.3 542.7 29.2 513.8L0 485Z" fill="#070f2b"></path><path d="M0 930L29.2 937.2C58.3 944.3 116.7 958.7 174.8 967.7C233 976.7 291 980.3 349.2 978.5C407.3 976.7 465.7 969.3 523.8 965.7C582 962 640 962 698.2 958.5C756.3 955 814.7 948 872.8 944.5C931 941 989 941 1047.2 950C1105.3 959 1163.7 977 1221.8 986C1280 995 1338 995 1396.2 991.3C1454.3 987.7 1512.7 980.3 1570.8 971.3C1629 962.3 1687 951.7 1745.2 949.8C1803.3 948 1861.7 955 1890.8 958.5L1920 962L1920 831L1890.8 813C1861.7 795 1803.3 759 1745.2 744.5C1687 730 1629 737 1570.8 753.2C1512.7 769.3 1454.3 794.7 1396.2 805.5C1338 816.3 1280 812.7 1221.8 812.7C1163.7 812.7 1105.3 816.3 1047.2 802C989 787.7 931 755.3 872.8 742.7C814.7 730 756.3 737 698.2 747.7C640 758.3 582 772.7 523.8 796.2C465.7 819.7 407.3 852.3 349.2 856C291 859.7 233 834.3 174.8 814.5C116.7 794.7 58.3 780.3 29.2 773.2L0 766Z" fill="#0a1d46"></path><path d="M0 1081L29.2 1081C58.3 1081 116.7 1081 174.8 1081C233 1081 291 1081 349.2 1081C407.3 1081 465.7 1081 523.8 1081C582 1081 640 1081 698.2 1081C756.3 1081 814.7 1081 872.8 1081C931 1081 989 1081 1047.2 1081C1105.3 1081 1163.7 1081 1221.8 1081C1280 1081 1338 1081 1396.2 1081C1454.3 1081 1512.7 1081 1570.8 1081C1629 1081 1687 1081 1745.2 1081C1803.3 1081 1861.7 1081 1890.8 1081L1920 1081L1920 960L1890.8 956.5C1861.7 953 1803.3 946 1745.2 947.8C1687 949.7 1629 960.3 1570.8 969.3C1512.7 978.3 1454.3 985.7 1396.2 989.3C1338 993 1280 993 1221.8 984C1163.7 975 1105.3 957 1047.2 948C989 939 931 939 872.8 942.5C814.7 946 756.3 953 698.2 956.5C640 960 582 960 523.8 963.7C465.7 967.3 407.3 974.7 349.2 976.5C291 978.3 233 974.7 174.8 965.7C116.7 956.7 58.3 942.3 29.2 935.2L0 928Z" fill="#0f2962"></path></svg>